<?xml version="1.0" standalone="no"?>
<!DOCTYPE svg PUBLIC "-//W3C//DTD SVG 20010904//EN"
 "http://www.w3.org/TR/2001/REC-SVG-20010904/DTD/svg10.dtd">
<svg version="1.0" xmlns="http://www.w3.org/2000/svg"
 width="500.000000pt" height="500.000000pt" viewBox="0 0 500.000000 500.000000"
 preserveAspectRatio="xMidYMid meet">
<metadata>
Created by potrace 1.16, written by Peter Selinger 2001-2019
</metadata>
<g transform="translate(0.000000,500.000000) scale(0.100000,-0.100000)"
fill="#000000" stroke="none">
<path d="M1930 4284 c-80 -29 -144 -97 -155 -165 -8 -47 -2 -57 22 -38 10 7 8
2 -4 -12 -13 -14 -23 -28 -23 -32 0 -15 35 -6 57 15 13 12 23 17 23 12 0 -17
-15 -31 -49 -49 -23 -12 -30 -19 -21 -25 10 -6 9 -9 -1 -13 -10 -4 -9 -6 3 -6
9 -1 23 5 30 12 7 7 17 13 23 13 5 -1 17 21 27 48 29 81 95 137 160 135 l33
-1 -30 -9 c-41 -11 -93 -64 -103 -103 -14 -52 2 -107 42 -143 31 -29 43 -33
88 -33 63 0 109 24 138 72 22 36 26 88 9 120 -8 15 -8 19 0 14 17 -11 13 3 -9
34 -29 40 -96 70 -159 70 -57 0 -80 -9 -126 -49 -19 -15 -16 -11 6 11 61 61
150 69 238 24 34 -19 85 -73 105 -114 25 -48 14 -62 -13 -18 -30 48 -37 42
-11 -9 30 -60 26 -87 -20 -129 -22 -20 -47 -36 -55 -36 -8 0 -15 -4 -15 -10 0
-5 -15 -11 -32 -12 -28 -1 -26 -2 12 -7 l45 -7 -52 -8 c-95 -14 -229 18 -265
64 -20 26 -24 27 -25 11 -5 -64 201 -121 312 -87 58 18 73 13 23 -8 -62 -26
-130 -29 -252 -11 -64 9 -134 14 -155 10 -115 -19 -107 -135 18 -254 31 -29
50 -50 44 -46 -7 3 -13 2 -13 -3 0 -11 84 -72 100 -72 6 0 -5 -17 -24 -37 -38
-40 -35 -57 10 -66 19 -3 28 1 34 17 8 20 9 20 11 -4 1 -24 2 -23 9 5 l8 30 1
-29 c1 -21 4 -26 14 -19 6 5 30 17 52 26 38 14 44 14 86 -5 36 -15 48 -26 56
-53 8 -25 8 -37 -1 -43 -19 -16 -95 -52 -108 -52 -7 0 -35 -11 -63 -24 -49
-24 -49 -24 -18 -25 35 -1 46 -11 37 -34 -6 -17 -59 -39 -68 -30 -3 4 -6 4 -6
1 0 -3 8 -12 17 -19 9 -8 14 -9 10 -3 -4 7 2 12 18 12 13 0 42 8 65 19 22 11
40 17 40 12 0 -4 -9 -11 -20 -14 -11 -3 -20 -10 -20 -15 0 -4 -16 -11 -36 -15
-38 -7 -39 -17 -1 -22 12 -2 24 -8 25 -13 6 -16 25 -12 64 15 20 14 40 25 43
25 13 0 -8 -22 -39 -41 l-31 -19 51 0 c27 0 55 -5 61 -11 8 -8 15 -4 27 12 9
13 16 18 16 12 0 -7 -4 -15 -10 -18 -19 -12 -9 -23 31 -33 39 -10 41 -9 36 11
-18 80 -16 89 6 33 23 -57 54 -85 78 -70 5 3 9 0 9 -7 0 -7 3 -10 6 -7 3 4 -2
28 -12 55 -10 27 -14 58 -10 68 6 17 7 17 21 -1 8 -10 15 -28 15 -39 0 -11 6
-30 13 -41 38 -65 54 -100 50 -110 -2 -6 3 -16 11 -23 11 -10 17 -8 30 10 8
13 19 20 22 16 4 -4 13 -2 21 5 8 6 51 13 96 15 88 5 77 9 243 -81 65 -35 126
-85 118 -97 -3 -5 -11 -9 -17 -8 -7 1 -27 1 -44 0 -49 -2 -41 -25 21 -60 30
-16 57 -35 61 -41 11 -18 -46 -31 -102 -24 l-53 6 16 -32 c22 -43 14 -47 -107
-49 -69 -1 -124 4 -186 19 -117 27 -145 39 -139 59 2 9 7 48 11 86 4 39 11 75
15 80 5 6 1 19 -7 30 -15 20 -15 20 -10 -3 3 -13 -1 -29 -11 -38 -12 -13 -13
-20 -4 -35 13 -21 0 -34 -23 -25 -19 7 -19 -8 0 -24 8 -7 15 -19 15 -26 0 -8
-7 -14 -15 -14 -8 0 -15 -4 -15 -8 0 -5 -39 -16 -87 -26 -117 -23 -333 -15
-368 14 -22 18 -19 31 13 57 l27 22 -25 1 c-14 0 -38 9 -55 20 -17 11 -39 17
-50 14 -44 -12 27 36 86 57 61 22 69 39 19 39 -35 0 -73 -16 -120 -49 l-35
-25 25 28 c13 15 40 37 60 49 19 11 55 36 79 54 34 26 39 33 23 33 -11 0 -28
-7 -36 -16 -9 -8 -16 -13 -16 -9 0 6 -58 -31 -70 -45 -3 -3 -20 -16 -38 -28
-31 -22 -33 -22 -23 -4 17 33 107 126 135 141 27 15 26 31 -3 31 -26 0 -149
-67 -201 -110 -55 -46 -87 -63 -101 -55 -13 9 -79 -23 -79 -37 0 -8 -3 -8 -9
-3 -15 15 -16 68 -3 92 22 40 12 37 -25 -8 -21 -24 -55 -61 -77 -82 -37 -36
-38 -39 -33 -85 4 -28 3 -41 -2 -32 -16 28 -22 95 -13 138 13 56 -2 45 -18
-14 -11 -38 -11 -61 -2 -116 14 -81 15 -91 4 -84 -5 3 -9 -1 -9 -9 0 -16 53
-13 86 4 15 9 21 9 21 1 0 -7 15 -2 34 9 30 19 117 51 139 51 5 0 6 -4 3 -9
-4 -5 -1 -11 5 -13 6 -2 1 -16 -13 -33 l-23 -30 33 27 c28 23 41 27 87 26 31
-1 55 -6 56 -12 0 -6 2 -23 4 -37 3 -27 -34 -104 -50 -104 -6 0 -28 -11 -49
-25 -27 -16 -53 -24 -80 -22 -29 1 -47 -5 -65 -21 -13 -12 -21 -17 -17 -10 3
6 1 15 -6 20 -13 7 -18 9 -50 11 -10 1 -18 10 -19 20 0 9 -6 -1 -14 -23 -13
-39 -13 -40 -15 -10 -2 24 -4 25 -7 8 l-4 -22 -36 20 -35 20 19 -33 c10 -18
29 -37 41 -43 12 -5 22 -13 22 -17 0 -5 29 -8 64 -8 42 0 90 -9 142 -26 l78
-26 49 52 c37 38 52 48 58 38 5 -7 9 -16 9 -19 0 -8 156 -139 165 -139 3 0 4
10 0 23 -4 14 1 10 16 -13 13 -19 38 -57 58 -85 l35 -50 -33 30 -33 30 7 -35
c4 -19 11 -45 16 -57 14 -36 64 -28 110 18 18 18 18 21 3 44 -22 34 -12 41 36
26 37 -11 43 -10 77 14 21 14 51 25 68 25 20 0 42 12 68 35 20 20 37 37 37 39
0 2 -8 6 -19 9 -12 3 -22 19 -28 43 l-9 39 -19 -32 c-10 -17 -30 -37 -44 -45
-14 -7 -28 -16 -31 -19 -11 -13 -100 -41 -115 -36 -8 4 -15 14 -15 24 0 28 61
115 99 140 41 28 96 30 110 6 8 -15 13 -16 28 -5 34 23 42 24 78 6 40 -19 62
-46 67 -84 4 -32 25 -49 61 -50 44 0 99 -27 95 -46 -3 -16 -38 -30 -38 -16 0
4 -24 7 -52 7 -29 0 -63 3 -75 7 -12 4 -25 3 -28 -3 -4 -5 -22 -8 -41 -6 -31
4 -39 -2 -35 -25 0 -4 -5 -5 -13 -2 -8 3 -26 -10 -42 -29 -16 -18 -50 -44 -76
-56 -27 -13 -48 -28 -48 -34 0 -5 -3 -7 -6 -4 -11 10 -61 -24 -73 -50 -15 -34
1 -30 103 22 74 38 91 44 104 33 12 -10 16 -10 19 0 6 15 50 16 106 0 42 -11
45 -10 85 22 52 41 89 31 59 -17 -5 -8 -3 -13 5 -13 9 0 9 -3 -2 -10 -12 -7
-8 -11 18 -16 41 -8 45 -15 30 -51 -9 -23 -12 -25 -15 -10 -3 11 -11 16 -19
13 -7 -3 -15 -2 -18 2 -3 4 -20 9 -38 10 -18 2 -46 5 -63 8 -72 14 -155 16
-155 4 0 -8 -12 -11 -34 -8 -33 4 -33 3 -19 -19 9 -13 20 -23 25 -23 6 0 27
-13 47 -28 43 -34 117 -52 212 -52 54 0 69 -3 69 -15 0 -8 -16 -18 -37 -24
-47 -12 -222 -12 -246 1 -9 5 -27 29 -38 54 l-22 45 -82 -7 c-46 -4 -112 -3
-149 1 -58 6 -64 8 -51 22 20 20 20 20 -15 15 -16 -2 -30 0 -30 5 0 11 -53 28
-120 38 -68 11 -200 62 -247 95 -23 17 -46 30 -52 30 -14 0 -49 20 -75 43 -11
9 -26 17 -35 17 -8 0 -22 6 -30 13 -9 7 -29 19 -46 26 l-30 13 35 -37 c82 -86
262 -171 424 -201 111 -20 139 -31 166 -59 33 -35 16 -44 -32 -17 -24 13 -82
29 -137 37 -53 9 -118 20 -146 25 -27 6 -69 12 -92 14 -68 7 -223 62 -223 80
0 5 -3 6 -7 3 -3 -4 -20 2 -37 12 -17 11 -48 28 -69 40 -20 11 -38 22 -40 23
-1 1 -12 -4 -24 -11 -17 -8 -23 -21 -23 -44 0 -24 -3 -28 -10 -17 -8 12 -10 9
-10 -11 0 -15 -7 -32 -15 -39 -19 -16 -19 -44 -1 -59 8 -7 17 -28 20 -49 11
-63 27 -90 61 -106 39 -19 59 -21 49 -4 -5 7 -2 9 7 6 8 -3 39 -13 69 -23 30
-10 63 -25 73 -33 16 -15 17 -14 11 4 -5 15 -4 16 5 4 6 -8 11 -24 11 -35 1
-19 1 -19 11 -2 9 16 19 17 65 11 59 -7 237 22 228 38 -3 4 14 5 38 3 24 -3
59 -7 78 -8 19 -2 60 -18 90 -35 30 -18 58 -32 63 -32 13 0 8 -30 -13 -74 -11
-24 -25 -66 -31 -92 -20 -87 -25 -94 -36 -54 l-10 35 -16 -54 c-27 -86 -22
-160 13 -229 17 -33 30 -69 30 -80 0 -12 4 -23 9 -26 5 -3 8 8 7 25 0 18 4 33
9 35 6 3 9 -13 7 -38 -3 -33 2 -52 22 -81 29 -43 33 -55 11 -37 -12 10 -13 7
-5 -22 13 -43 13 -51 -2 -42 -8 5 -6 -2 3 -16 9 -14 45 -40 80 -58 52 -27 66
-40 76 -69 15 -42 0 -78 -51 -125 -20 -19 -24 -26 -12 -22 13 5 17 4 12 -4 -5
-8 -2 -10 8 -6 36 14 12 -8 -35 -32 -28 -14 -48 -20 -43 -13 5 9 2 10 -9 6
-11 -4 -17 -1 -17 8 0 8 -6 12 -12 10 -17 -6 -104 -17 -145 -18 -17 0 -31 -5
-30 -11 1 -6 -4 -10 -10 -9 -7 2 -13 -2 -13 -7 0 -6 -7 -10 -16 -10 -9 0 -30
-13 -45 -30 -16 -16 -31 -25 -34 -20 -4 6 -12 10 -18 9 -9 0 -9 -2 1 -6 23 -9
12 -32 -22 -48 -19 -9 -42 -25 -52 -36 -17 -19 -15 -19 73 -19 137 0 144 3
171 63 12 29 22 57 22 63 0 15 41 50 68 59 34 10 55 -10 39 -38 -20 -35 -36
-49 -49 -41 -8 5 -9 2 -5 -9 4 -11 -6 -26 -33 -47 -66 -52 -56 -64 48 -54 90
9 115 8 217 -1 50 -5 74 -1 142 23 120 43 133 53 133 108 0 25 -5 55 -12 67
-6 12 -13 40 -15 62 -3 22 -11 72 -20 110 -18 84 -17 115 3 163 20 49 11 93
-28 138 -38 43 -83 67 -115 61 -18 -3 -23 0 -21 11 2 8 13 16 24 17 43 3 121
91 126 142 1 10 4 -9 8 -42 l7 -60 1 58 c2 47 7 63 27 82 13 14 34 25 47 25
19 0 27 -9 41 -48 20 -58 83 -133 130 -155 18 -9 39 -27 46 -40 11 -21 9 -27
-22 -60 -18 -20 -42 -37 -53 -37 -11 0 -30 -10 -42 -23 -20 -21 -21 -25 -7
-69 7 -26 19 -57 26 -70 16 -29 22 -87 11 -102 -13 -18 -16 -79 -3 -72 12 8 4
-17 -24 -71 -8 -17 -18 -54 -22 -81 l-6 -50 53 -29 c28 -15 66 -36 83 -45 39
-22 68 -22 137 -2 41 12 62 13 94 5 77 -19 116 -22 154 -10 27 8 67 8 135 2
74 -7 98 -6 101 4 3 7 -1 10 -8 7 -7 -3 -31 11 -51 31 -35 32 -37 37 -23 51
22 23 62 0 84 -47 17 -38 18 -39 70 -39 59 0 84 7 84 24 -1 13 -27 44 -55 66
-19 15 -19 15 -2 -13 10 -16 17 -31 15 -33 -8 -7 -49 56 -43 66 8 13 -42 59
-73 67 -13 3 -39 1 -58 -5 -23 -7 -34 -7 -37 1 -2 6 -39 11 -90 11 -48 1 -87
4 -87 7 0 10 -50 17 -55 9 -3 -4 -18 -10 -35 -12 -21 -3 -35 1 -48 15 -16 20
-16 20 3 12 11 -4 34 -9 50 -11 l30 -4 -28 9 c-39 13 -53 26 -94 88 -32 49
-34 56 -23 83 7 16 27 36 45 45 62 29 92 62 105 115 9 37 9 58 1 81 -18 53
-13 107 17 167 39 81 37 171 -6 267 -17 39 -36 69 -42 67 -7 -1 -9 1 -6 6 3 5
-3 18 -14 29 -21 23 -17 33 12 33 10 0 41 12 69 26 28 14 48 21 45 16 -3 -5
23 -12 58 -15 34 -3 87 -16 117 -28 41 -17 76 -23 141 -23 50 -1 90 3 92 9 3
6 5 -1 5 -15 1 -25 1 -25 20 6 24 39 26 41 76 46 22 3 32 3 23 1 -21 -5 -22
-8 -7 -35 11 -20 12 -20 26 8 7 16 28 38 46 49 18 11 40 38 51 60 10 22 27 51
37 64 19 24 24 67 12 110 -6 23 -7 23 -14 5 -6 -16 -8 -14 -8 10 -1 16 -10 45
-22 65 -20 35 -20 35 0 11 l20 -25 -3 25 c-3 37 -26 113 -38 127 -5 7 -7 16
-4 22 3 5 0 11 -6 14 -10 3 -10 7 -2 18 17 20 27 93 19 138 -6 34 -70 135 -97
152 -6 4 -3 31 7 70 21 80 15 181 -16 264 -17 46 -38 76 -88 125 -78 78 -106
88 -245 89 -91 1 -102 3 -125 25 -14 13 -46 36 -71 52 -103 65 -180 127 -180
146 0 11 -4 16 -11 12 -8 -5 -8 -1 0 14 15 29 28 35 72 35 21 0 37 3 34 6 -2
4 24 19 58 34 34 15 53 20 43 12 -11 -8 -23 -15 -28 -15 -4 0 -8 -7 -8 -15 0
-9 29 -34 65 -56 36 -23 65 -45 65 -49 0 -5 8 -6 18 -3 14 3 18 12 16 31 l-4
27 8 -25 c8 -26 15 -27 77 -15 23 5 41 -1 78 -25 87 -59 165 -59 207 0 19 26
22 27 61 19 69 -16 134 17 157 81 8 22 15 25 55 25 34 0 51 6 63 20 8 11 12
14 9 7 -6 -11 -3 -12 15 -2 22 12 62 88 54 102 -3 4 0 8 5 8 6 0 11 8 11 19 0
15 10 19 51 23 59 6 88 29 98 78 11 57 39 69 249 106 32 6 27 28 -15 62 -62
48 -301 202 -341 219 -50 22 -56 23 -219 29 -155 7 -277 -8 -420 -50 -76 -23
-77 -23 -97 -4 -18 17 -22 17 -32 3 -15 -20 -24 -19 -24 4 0 11 -9 30 -20 43
-11 12 -43 54 -71 91 -40 53 -56 68 -71 64 -15 -4 -18 -2 -14 10 5 12 3 13 -7
5 -10 -9 -19 -8 -35 4 -12 8 -22 12 -22 9 0 -4 -13 3 -30 15 -16 12 -30 19
-30 15 0 -3 -8 -1 -19 4 -10 6 -31 13 -47 15 -16 3 -51 10 -78 15 -72 13 -172
-3 -258 -42 -40 -19 -76 -30 -79 -25 -3 4 -16 -1 -29 -12 -30 -26 -38 -25 -43
3 -2 12 -5 4 -6 -19 0 -24 -8 -47 -17 -54 -14 -12 -15 -5 -10 66 3 43 3 70 0
59 -7 -25 -24 -44 -24 -27 0 22 -15 12 -28 -18 -17 -36 -32 -39 -32 -5 0 14
-4 24 -8 23 -5 -2 -31 11 -58 28 -92 59 -115 67 -204 71 -62 2 -97 -1 -130
-13z m979 -195 c93 -46 129 -117 96 -188 -13 -31 -27 -42 -78 -63 -63 -27
-105 -41 -167 -57 -29 -8 -21 -9 49 -10 106 -1 150 12 209 63 44 39 45 40 22
8 -13 -18 -49 -45 -80 -60 -49 -24 -65 -27 -150 -26 -109 2 -169 20 -216 65
-28 27 -30 34 -27 85 4 64 19 104 19 51 0 -52 21 -92 60 -110 93 -45 210 3
235 95 21 81 -30 161 -111 171 -25 3 -19 4 21 5 45 2 68 -4 118 -29z m-484
-179 l30 -8 -34 -1 c-39 -1 -34 -13 7 -19 15 -2 33 -9 41 -17 15 -15 9 -45
-10 -45 -8 0 -8 4 1 15 7 9 10 18 8 21 -11 10 -73 -12 -73 -27 0 -11 14 -13
61 -12 59 3 66 0 135 -45 41 -26 100 -63 132 -81 65 -37 63 -51 -10 -51 -23 0
-53 -4 -67 -10 -15 -5 -26 -6 -26 0 0 5 -13 5 -32 -1 -36 -10 -295 -4 -407 10
-94 12 -212 76 -185 100 5 5 50 22 99 39 127 43 198 74 213 95 7 9 22 17 34
17 14 0 18 5 14 15 -6 17 17 18 69 5z m90 -30 c4 -6 15 -8 26 -5 11 4 19 2 19
-5 0 -6 -6 -8 -12 -4 -7 4 9 -16 36 -44 88 -91 178 -115 329 -88 50 10 99 23
107 30 23 20 105 39 131 31 26 -8 69 -43 69 -56 0 -5 -19 1 -42 11 -26 12 -63
19 -93 19 l-50 -1 46 -8 c55 -9 77 -20 104 -51 l20 -22 -22 5 c-13 4 -23 2
-23 -3 0 -5 -12 -7 -27 -3 -16 3 -75 7 -133 9 -211 7 -267 15 -328 46 -57 29
-197 148 -175 149 6 0 15 -5 18 -10z m-489 -221 c25 -12 73 -38 104 -58 83
-54 151 -66 363 -66 l179 1 -69 -18 c-50 -14 -105 -18 -208 -18 -127 0 -156 3
-235 26 l-25 7 25 -21 c14 -12 21 -21 16 -22 -18 0 42 -39 75 -47 24 -7 34
-15 34 -29 0 -10 -6 -20 -12 -20 -7 -1 -18 -2 -24 -3 -5 0 -7 -7 -3 -13 18
-30 -148 141 -182 188 -20 28 -47 57 -58 64 -14 8 -10 0 10 -21 29 -31 81
-119 70 -119 -2 0 -16 19 -29 43 -25 43 -120 137 -138 137 -5 0 -9 5 -9 11 0
15 56 4 116 -22z m1350 -784 c29 -19 60 -81 58 -118 -1 -34 -33 -72 -48 -57
-15 15 -36 12 -30 -5 7 -19 2 -19 -40 -1 -39 16 -67 37 -112 85 -55 58 -19 70
62 21 l49 -31 -37 35 c-38 36 -58 76 -38 76 6 0 8 4 5 10 -10 16 104 3 131
-15z m-900 -336 c23 -26 132 -97 203 -134 28 -14 51 -27 51 -29 0 -43 -77 -50
-143 -12 -23 13 -64 32 -90 41 -27 10 -56 29 -64 42 -14 21 -18 22 -32 9 -9
-8 -59 -31 -111 -52 -52 -21 -108 -48 -123 -60 -23 -20 -31 -22 -52 -12 -30
14 -33 28 -5 28 28 0 25 8 -17 46 -49 42 -38 53 58 64 41 5 101 19 134 31 33
12 83 30 110 40 63 23 58 23 81 -2z m900 -64 c70 -46 114 -88 119 -114 5 -29
-24 -83 -43 -79 -8 2 -23 27 -34 56 -19 51 -79 124 -122 147 -16 9 -13 11 17
10 19 -1 48 -10 63 -20z m-97 -19 c12 -9 13 -8 7 2 -6 10 1 9 23 -3 43 -22 94
-102 86 -135 -8 -30 -24 -52 -35 -45 -4 2 -21 0 -38 -4 -21 -6 -38 -5 -56 4
-14 8 -26 11 -26 7 0 -4 -9 7 -19 25 -28 45 -45 107 -37 136 9 36 57 42 95 13z
m10 -331 c9 4 36 10 61 15 36 7 46 5 56 -8 7 -10 16 -14 20 -9 4 4 2 7 -5 7
-7 0 -9 5 -6 10 8 14 72 13 137 -2 29 -6 56 -11 59 -10 3 0 6 -5 6 -13 0 -7
-6 -11 -13 -8 -12 4 -101 -58 -116 -81 -4 -6 -8 -7 -8 -3 0 5 -14 -1 -30 -13
-17 -12 -36 -23 -43 -24 -7 -1 -26 -9 -42 -18 -54 -29 -148 -53 -263 -68 -39
-5 -85 -16 -101 -25 -28 -14 -33 -13 -65 6 -35 20 -48 15 -24 -9 6 -6 9 -14 6
-18 -10 -9 -75 15 -90 33 -12 15 -11 15 10 4 22 -12 23 -11 13 8 -16 30 -4 52
23 41 41 -15 48 0 45 103 -2 53 0 100 4 103 4 4 7 -5 7 -19 0 -32 0 -32 53 -6
55 28 97 58 94 67 -1 4 14 22 33 39 l34 31 65 -70 c45 -48 69 -67 80 -63z
m383 -28 c9 -8 18 -20 20 -27 2 -8 12 -22 23 -32 12 -10 15 -17 8 -18 -7 0
-13 -7 -13 -15 0 -8 -4 -15 -10 -15 -5 0 -10 5 -10 11 0 6 -6 4 -14 -4 -8 -8
-56 -29 -108 -46 -51 -18 -109 -39 -128 -47 -57 -22 -108 -32 -250 -50 -74 -9
-147 -23 -162 -31 -34 -16 -38 0 -5 21 25 16 54 21 183 36 168 18 375 92 433
154 18 19 20 28 12 49 -11 29 -5 33 21 14z m-1641 -238 c9 -5 19 -5 23 -2 3 3
6 2 6 -4 0 -6 11 -13 24 -15 19 -4 23 -1 18 10 -4 12 -1 14 14 8 26 -10 149
-25 205 -26 31 0 49 -5 52 -14 9 -22 -11 -24 -118 -10 -55 7 -102 11 -104 8
-2 -2 1 -4 7 -4 7 0 12 -5 12 -11 0 -16 -72 -4 -118 20 -21 10 -69 24 -109 31
-40 7 -70 17 -67 22 6 9 131 -1 155 -13z m199 -1199 c-7 -25 -6 -30 8 -30 16
-1 16 -1 0 -13 -15 -12 -15 -14 3 -25 10 -7 19 -19 19 -28 0 -13 -7 -15 -32
-11 l-33 6 28 -15 c32 -17 28 -31 -22 -78 -40 -39 -54 -26 -54 49 0 44 5 61
24 82 19 22 20 25 4 14 -11 -7 -8 -2 8 12 15 14 27 30 27 35 0 7 20 32 26 32
2 0 -1 -13 -6 -30z"/>
<path d="M1230 4199 c-30 -4 -75 -14 -100 -22 -51 -16 -268 -114 -288 -130
-19 -15 3 -35 52 -48 22 -6 56 -19 74 -30 24 -13 52 -19 99 -19 56 0 75 -5
122 -31 47 -26 53 -28 36 -10 l-19 22 29 -11 c28 -9 29 -9 10 5 -27 21 -138
55 -184 56 l-36 1 30 9 c63 21 153 3 260 -51 98 -49 103 -51 193 -52 l91 -2
-39 -23 c-22 -13 -40 -27 -41 -31 0 -4 -2 -17 -5 -29 -3 -20 -1 -21 29 -12 17
5 50 9 73 9 37 0 43 3 54 30 7 17 25 48 39 68 38 52 53 94 49 133 -3 34 -4 34
-56 36 -35 2 -64 10 -82 23 -15 11 -33 20 -38 20 -5 0 -12 6 -15 14 -3 7 -18
16 -34 19 -15 3 -55 15 -88 27 -76 28 -145 37 -215 29z"/>
</g>
</svg>
