<?xml version="1.0" standalone="no"?>
<!DOCTYPE svg PUBLIC "-//W3C//DTD SVG 20010904//EN"
 "http://www.w3.org/TR/2001/REC-SVG-20010904/DTD/svg10.dtd">
<svg version="1.0" xmlns="http://www.w3.org/2000/svg"
 width="500.000000pt" height="500.000000pt" viewBox="0 0 500.000000 500.000000"
 preserveAspectRatio="xMidYMid meet">
<metadata>
Created by potrace 1.16, written by Peter Selinger 2001-2019
</metadata>
<g transform="translate(0.000000,500.000000) scale(0.100000,-0.100000)"
fill="#000000" stroke="none">
<path d="M447 4626 c-44 -16 -77 -43 -77 -62 0 -18 44 -46 74 -48 13 0 22 -5
18 -10 -3 -5 2 -7 10 -4 8 4 26 -4 39 -15 38 -34 86 -91 69 -83 -8 4 -4 -2 10
-13 14 -11 22 -21 17 -21 -4 0 0 -15 10 -32 16 -32 54 -201 54 -243 0 -15 2
-16 8 -6 6 8 9 -1 9 -28 0 -22 6 -49 12 -58 10 -16 10 -15 5 5 -7 25 6 29 24
8 6 -8 21 -16 32 -19 20 -5 20 -5 2 15 -18 21 -18 21 12 6 17 -8 100 -34 185
-58 85 -23 180 -56 210 -72 l55 -29 -50 6 c-61 7 -191 30 -224 41 -17 5 -22 4
-17 -4 20 -33 -127 9 -180 51 -26 20 -27 20 -20 2 17 -41 19 -58 8 -51 -17 10
-15 -58 2 -92 8 -15 25 -36 37 -47 l24 -20 -21 25 c-12 14 -27 35 -33 47 -12
24 -15 84 -3 68 4 -5 16 -12 26 -13 17 -3 18 -2 7 12 -17 21 -2 21 65 2 58
-17 151 -35 213 -42 58 -6 198 -66 174 -75 -15 -5 -12 -9 17 -25 33 -18 34
-19 11 -22 -14 -2 -54 3 -90 11 -162 37 -206 27 -56 -13 44 -12 88 -29 98 -37
16 -16 15 -17 -20 -30 -21 -7 -58 -13 -83 -13 -63 -1 -31 -16 51 -24 46 -4 80
-2 115 9 27 8 51 15 53 15 2 0 -9 -12 -25 -27 l-29 -27 25 -7 c14 -4 37 -7 53
-8 54 -2 23 -28 -62 -51 -29 -7 -39 -15 -35 -25 5 -12 19 -14 73 -9 51 4 71 2
86 -9 19 -15 18 -17 -32 -38 -29 -12 -53 -26 -53 -31 0 -5 14 -15 32 -23 30
-12 31 -13 9 -17 -31 -4 -52 -35 -32 -47 18 -12 -3 -18 -41 -13 -20 3 -26 8
-19 16 7 8 0 10 -28 8 -21 -2 -55 3 -75 12 -21 9 -48 16 -60 16 -19 -1 -18 -3
11 -28 17 -15 61 -42 97 -60 37 -19 64 -38 61 -43 -8 -12 59 -12 125 1 72 14
86 7 94 -40 3 -21 16 -59 29 -83 l22 -44 1 46 c1 25 9 62 18 81 12 26 15 29
12 10 -16 -86 -18 -158 -4 -184 13 -25 14 -23 11 41 -2 56 -1 61 6 29 5 -21
13 -41 18 -45 6 -3 13 -28 15 -55 4 -35 13 -56 33 -75 l27 -26 -22 42 c-12 23
-20 55 -18 70 3 24 7 18 28 -37 13 -36 24 -69 25 -73 0 -4 19 -16 42 -27 l43
-19 -40 38 c-22 21 -40 46 -40 57 0 17 3 16 20 -6 11 -14 20 -28 20 -32 0 -5
4 -8 9 -8 4 0 7 12 4 28 -3 23 0 21 16 -13 11 -22 20 -36 20 -31 1 6 6 5 13
-2 19 -19 30 -14 18 7 -18 35 -11 36 24 2 25 -24 45 -34 77 -37 51 -5 119 -22
119 -30 0 -4 -16 -4 -35 -2 -19 2 -35 0 -35 -4 0 -4 19 -8 42 -8 41 0 41 0 23
-20 -16 -17 -11 -16 31 6 l49 27 -70 -69 c-57 -56 -76 -83 -100 -142 -16 -41
-33 -76 -38 -79 -4 -3 -1 12 8 34 19 43 45 113 45 120 0 3 -21 -11 -48 -29
-26 -19 -68 -47 -94 -62 -36 -20 -48 -33 -48 -50 0 -38 -26 -101 -54 -129 -14
-14 -36 -47 -49 -74 -13 -26 -36 -69 -51 -95 -15 -27 -24 -48 -20 -48 4 0 0
-8 -10 -19 -9 -10 -18 -28 -21 -40 -2 -12 -14 -35 -26 -52 l-22 -31 24 -22
c14 -11 20 -18 15 -13 -24 18 -66 6 -103 -29 -24 -23 -33 -39 -25 -41 6 -3 10
-9 6 -14 -3 -5 -7 -28 -8 -50 -3 -39 -3 -39 20 -24 34 22 78 18 137 -11 74
-38 163 -100 171 -119 10 -26 7 -85 -4 -85 -5 0 -10 -7 -10 -15 0 -22 -13 -19
-72 16 -127 75 -318 162 -318 145 0 -3 12 -12 28 -20 26 -15 26 -15 4 -16 -15
0 -21 -4 -17 -12 4 -7 -3 -2 -15 12 -21 25 -21 25 -10 1 7 -13 10 -34 7 -47
-5 -30 1 -31 13 -1 9 19 10 17 7 -14 -2 -29 0 -36 13 -31 9 3 6 -5 -9 -21 -15
-16 -19 -27 -12 -27 11 0 11 -3 1 -15 -10 -12 -10 -15 1 -15 9 0 10 -3 3 -8
-13 -8 -35 -68 -27 -75 2 -3 -1 -16 -8 -29 -7 -12 -12 -34 -11 -48 2 -18 0
-21 -6 -11 -7 10 -12 7 -21 -15 l-11 -29 5 30 c3 17 8 39 11 50 4 15 1 14 -10
-5 -9 -14 -15 -36 -16 -50 0 -15 -6 -32 -12 -39 -10 -11 -10 -12 -1 -7 10 5
11 -1 6 -26 -8 -42 -13 -48 -13 -17 0 13 -5 31 -10 39 -11 17 -4 -27 16 -100
10 -36 12 -39 13 -17 1 40 21 33 21 -9 0 -21 -4 -33 -10 -29 -27 17 -5 -16 37
-53 52 -48 54 -49 47 -25 -5 17 -5 17 6 0 6 -9 8 -22 5 -27 -4 -6 -1 -9 7 -8
7 2 12 -3 10 -10 -1 -8 2 -11 7 -8 5 4 13 1 18 -7 12 -19 60 -37 80 -30 12 5
14 3 8 -7 -5 -8 -4 -11 3 -6 6 3 26 0 44 -9 19 -8 23 -12 9 -9 -15 4 -21 2
-17 -4 3 -6 24 -13 47 -17 37 -6 43 -4 75 29 18 19 34 37 34 40 0 3 -13 34
-28 68 -58 127 -58 124 13 63 36 -30 72 -55 81 -55 26 0 45 66 46 162 2 79 3
88 16 72 11 -15 13 -46 9 -139 -3 -66 -3 -104 -1 -85 15 131 27 200 36 200 13
0 -2 -233 -16 -242 -7 -5 -1 -17 17 -36 l28 -29 -25 4 c-25 5 -26 3 -26 -36 0
-23 5 -52 12 -64 11 -21 10 -21 -8 -7 -10 8 -7 1 7 -15 21 -24 25 -35 18 -52
-4 -13 -5 -23 0 -23 5 0 12 16 15 35 12 61 23 29 14 -35 -10 -64 -5 -96 12
-85 17 11 11 -7 -7 -21 -17 -13 -17 -14 2 -8 20 6 20 5 1 -10 -11 -9 -30 -16
-42 -16 -16 0 -24 -7 -26 -22 -2 -14 -10 -23 -19 -22 -12 1 -15 -5 -11 -20 4
-17 2 -19 -9 -8 -21 20 -29 14 -17 -13 6 -14 15 -25 20 -25 4 0 43 35 85 78
42 42 71 69 64 60 -10 -13 -9 -18 6 -27 17 -10 16 -10 -4 -11 -12 0 -25 -5
-28 -10 -4 -7 2 -9 18 -5 29 8 67 -23 67 -52 0 -13 -7 -9 -26 15 -23 29 -54
47 -39 22 3 -5 0 -7 -8 -4 -8 3 -18 1 -21 -5 -4 -5 2 -12 13 -16 20 -6 51 -61
51 -89 0 -9 -9 -21 -20 -28 -11 -7 -20 -19 -20 -26 0 -7 -4 -10 -10 -7 -5 3
-10 -1 -10 -9 0 -28 -18 -26 -60 9 -53 44 -94 47 -109 8 -11 -28 -11 -27 -6 6
5 33 5 33 -19 17 -23 -15 -25 -14 -31 3 -3 10 -17 31 -30 45 -20 22 -29 25
-44 17 -10 -6 -21 -20 -24 -31 -4 -17 -2 -20 14 -15 25 8 49 -11 49 -38 0 -28
-90 -112 -102 -95 -6 11 -8 11 -8 0 0 -23 31 -25 70 -3 21 11 52 21 69 21 25
0 32 -5 36 -27 21 -101 35 -112 86 -69 17 14 40 26 52 26 12 0 50 13 84 29 34
16 64 27 67 24 3 -4 6 -18 6 -33 0 -43 20 -89 42 -96 14 -4 28 2 46 19 15 14
52 36 82 50 31 13 87 52 125 85 38 34 90 69 115 79 64 23 88 49 93 103 2 25 2
35 0 22 -4 -19 -7 -21 -19 -11 -8 6 -14 8 -14 4 0 -5 -9 0 -20 10 -11 10 -20
23 -20 28 0 6 10 2 21 -9 l22 -19 -17 32 c-9 18 -16 40 -17 50 0 17 -1 17 -7
0 -6 -13 -10 -5 -18 28 -6 25 -9 45 -7 45 1 0 10 -12 18 -27 9 -16 13 -19 10
-8 -4 11 -9 42 -12 69 -9 70 11 51 27 -26 7 -35 19 -74 27 -88 9 -15 12 -17 8
-5 -4 11 -15 52 -24 92 l-18 72 27 20 c24 17 29 29 35 90 8 80 29 110 64 92
19 -11 23 -22 35 -116 4 -26 14 -47 30 -60 13 -11 26 -29 29 -40 4 -16 5 -17
6 -2 1 18 21 24 21 6 0 -6 -7 -38 -15 -70 -9 -33 -13 -64 -10 -70 4 -5 -5 -30
-19 -55 -29 -51 -31 -58 -16 -49 12 7 12 -2 0 -30 l-9 -20 0 20 c-1 11 -6 27
-12 35 -7 11 -8 6 -4 -20 9 -47 32 -70 115 -115 38 -21 95 -59 125 -85 31 -26
75 -53 98 -60 23 -7 57 -27 75 -44 26 -24 36 -28 50 -20 24 15 42 54 42 92 0
37 7 39 52 12 18 -10 56 -24 84 -30 29 -6 66 -22 84 -35 18 -13 38 -21 46 -18
12 5 27 44 36 98 5 30 41 30 93 0 60 -36 75 -29 73 32 l-1 48 -6 -43 -6 -43
-42 35 c-47 41 -72 98 -53 121 13 16 45 21 36 6 -3 -5 1 -11 9 -15 19 -7 19 4
2 28 -20 27 -49 16 -73 -27 -24 -43 -35 -47 -45 -20 -6 14 -8 11 -8 -12 l-1
-29 -16 22 c-22 32 -66 29 -108 -8 -31 -27 -37 -29 -55 -18 -12 7 -21 16 -21
21 0 4 -4 6 -8 3 -16 -9 -35 41 -28 71 4 15 8 37 10 48 1 11 9 20 17 21 8 0
22 4 32 8 17 8 16 11 -9 37 -20 21 -23 29 -12 29 8 0 27 -17 40 -38 14 -20 42
-46 62 -57 37 -20 38 -20 52 -1 20 27 18 38 -6 31 -14 -4 -20 -2 -20 8 0 19
-30 44 -63 52 -15 4 -26 10 -23 13 3 3 1 12 -6 19 -9 11 -9 16 0 22 9 6 10 24
2 77 -8 61 -7 71 7 82 10 7 23 10 29 8 7 -3 18 3 26 12 11 15 11 15 -3 5 -13
-11 -15 -6 -11 47 4 53 2 60 -14 60 -16 0 -17 2 -3 15 12 12 13 31 8 97 -4 46
-10 104 -14 131 -5 30 -4 47 3 47 6 0 13 -8 15 -17 3 -12 5 -10 6 7 0 14 10
31 21 38 19 12 20 10 20 -76 0 -134 24 -181 75 -148 40 26 126 111 129 126 9
58 41 85 63 54 18 -24 16 -31 -8 -51 -48 -42 -79 -76 -79 -88 0 -7 -8 -30 -17
-51 -9 -22 -17 -46 -17 -54 -1 -8 -6 -14 -11 -13 -6 1 -11 -7 -11 -18 0 -12 7
-19 18 -19 11 0 18 -7 18 -20 0 -40 49 -37 170 9 62 24 95 46 123 82 19 27 22
39 37 155 5 39 14 82 20 95 9 22 10 22 5 -6 -3 -16 -9 -62 -14 -102 -5 -39
-12 -76 -16 -82 -13 -22 12 -10 36 17 34 36 74 182 50 182 -4 0 -7 -12 -4 -27
3 -22 0 -20 -11 10 -9 21 -13 43 -10 50 2 7 -2 29 -11 48 l-16 34 6 -50 5 -50
-19 45 c-12 30 -26 47 -42 51 -23 7 -23 7 4 8 26 1 27 3 16 24 -7 12 -13 33
-14 46 0 13 -9 29 -18 36 -13 10 -15 14 -5 17 10 4 10 9 -2 23 -14 17 -13 18
5 12 17 -6 16 -4 -4 14 -21 17 -22 22 -10 30 11 7 10 9 -6 10 -11 0 -14 3 -8
6 7 2 13 18 13 33 0 16 4 31 9 34 5 4 7 -2 5 -11 -3 -10 2 -27 11 -38 16 -19
16 -19 5 3 -8 17 -8 27 0 36 14 18 -11 28 -48 21 -23 -4 -21 -2 8 11 21 10 30
19 22 21 -14 5 -158 -63 -294 -139 -42 -23 -79 -40 -82 -38 -2 3 -8 29 -12 58
-7 52 -6 53 33 91 45 42 128 91 186 110 33 11 41 10 65 -4 15 -10 37 -29 49
-44 l22 -26 -21 69 c-17 55 -18 70 -8 76 10 6 5 17 -22 44 -38 38 -82 48 -106
24 -9 -9 -12 -9 -12 0 0 7 4 12 8 12 5 0 17 6 27 14 18 13 18 14 -4 50 -13 20
-26 36 -31 36 -4 0 -6 8 -3 18 2 10 -3 24 -11 31 -9 8 -16 21 -16 30 0 9 -8
28 -17 41 -10 14 -47 80 -84 148 -36 67 -69 119 -72 115 -4 -3 -5 7 -2 23 5
24 1 32 -22 46 -15 10 -59 38 -96 62 l-68 45 6 -32 c6 -31 6 -31 -15 8 -12 22
-49 66 -83 98 -51 47 -56 54 -26 37 32 -18 37 -19 43 -5 3 9 18 15 36 15 16 0
30 4 30 9 0 6 -17 8 -37 5 -34 -4 -35 -3 -14 6 14 6 32 9 40 8 9 -2 31 8 49
20 25 18 32 20 32 8 0 -8 -10 -22 -22 -31 -22 -15 -22 -16 19 -13 23 2 39 5
37 7 -2 2 2 11 9 19 8 11 4 10 -16 -3 -15 -10 -30 -16 -32 -13 -5 5 68 77 93
92 23 14 13 -31 -14 -63 l-26 -31 34 6 c18 4 40 14 48 22 13 14 13 15 -3 3
-28 -22 -28 -9 -2 44 20 38 25 43 25 24 l0 -24 18 28 c10 15 21 24 25 21 8 -9
-3 -36 -26 -61 -33 -37 0 -28 63 15 66 46 112 124 103 178 -7 44 5 94 18 73 5
-7 9 -25 9 -39 l1 -25 15 28 c8 16 13 34 10 40 -2 7 -5 3 -6 -8 -4 -37 -18 37
-18 95 l0 55 14 -30 15 -30 -5 30 c-3 17 -8 40 -12 53 -4 14 -2 22 5 22 7 0 9
-4 6 -10 -3 -5 -2 -10 3 -10 5 0 13 -10 16 -22 7 -22 7 -22 15 -3 7 16 9 13
13 -17 3 -32 1 -38 -17 -40 -15 -2 -20 -11 -22 -38 -1 -34 -1 -34 5 -5 6 24
15 32 46 40 31 9 36 13 21 18 -10 4 -16 10 -13 12 8 8 68 -16 68 -26 0 -35
236 68 288 125 30 32 31 35 10 27 -12 -4 -31 -7 -41 -5 -9 1 -15 -2 -11 -7 3
-5 13 -9 22 -9 14 0 14 -2 3 -9 -7 -5 -21 -8 -30 -6 -9 1 -19 -3 -23 -9 -4 -7
-36 -11 -79 -10 -65 1 -71 0 -54 -13 19 -13 18 -13 -5 -9 -14 2 -28 5 -32 5
-4 1 -5 8 -2 16 4 10 -4 19 -27 29 l-32 14 32 7 c41 9 38 34 -6 49 -18 6 -40
19 -49 28 -16 16 -15 17 10 24 15 3 50 3 77 0 32 -4 49 -3 45 3 -4 5 6 11 21
13 23 3 18 6 -25 16 -64 15 -95 30 -87 43 4 5 21 9 38 9 52 0 63 14 33 38 -14
11 -26 22 -26 24 0 3 24 -1 54 -9 39 -10 75 -11 132 -5 l79 8 -82 18 c-78 18
-109 36 -62 36 11 0 18 4 15 9 -4 5 28 17 69 27 41 10 80 21 87 25 28 17 -3
17 -97 -2 -55 -10 -116 -19 -135 -19 l-35 1 34 18 c23 12 30 20 20 23 -17 7
114 68 156 74 62 7 202 35 252 49 68 20 83 19 53 -5 -17 -13 -20 -20 -10 -20
25 0 42 16 55 51 7 19 16 42 20 52 6 14 1 12 -19 -7 -29 -26 -133 -66 -175
-66 -24 0 -24 0 -5 15 18 14 17 14 -11 5 -43 -14 -287 -61 -292 -56 -10 10 92
57 163 76 138 37 288 82 319 97 l30 14 -25 -21 c-18 -16 -20 -20 -7 -16 10 3
20 6 22 6 4 0 45 89 45 98 0 3 -10 -6 -23 -20 -24 -26 -104 -60 -167 -72 l-35
-7 23 20 c12 11 51 29 87 41 76 25 109 50 112 82 2 32 22 105 41 152 21 49 70
118 81 112 4 -3 28 16 52 41 24 26 35 41 24 33 -20 -15 -20 -15 0 8 11 14 26
21 37 19 10 -3 16 -2 13 3 -7 11 22 21 40 14 8 -4 15 -1 15 6 0 6 5 8 10 5 6
-3 10 3 10 15 0 12 -4 18 -10 15 -6 -3 -7 1 -4 10 5 11 -7 21 -42 36 -62 28
-154 22 -317 -20 -65 -17 -121 -31 -125 -32 -4 0 2 -4 12 -8 11 -4 47 0 85 11
106 30 161 39 244 39 119 0 127 -17 10 -24 -54 -3 -134 -16 -178 -28 -44 -12
-92 -24 -108 -26 -15 -3 -44 -14 -64 -24 -20 -10 -40 -16 -45 -13 -5 3 -15 -1
-21 -9 -16 -19 -67 -31 -67 -16 0 8 -6 7 -17 -3 -10 -9 -29 -19 -43 -23 -14
-4 -35 -13 -47 -21 -21 -13 -23 -13 -23 3 -1 11 -6 6 -14 -13 -16 -37 -34 -50
-48 -36 -14 14 6 48 40 66 36 20 9 20 -28 1 -23 -12 -30 -23 -30 -44 0 -28
-42 -91 -60 -91 -5 0 -11 12 -13 28 l-4 27 -2 -30 c-1 -16 -6 -37 -11 -45 -9
-13 -11 -13 -20 0 -8 12 -10 9 -10 -13 0 -23 -4 -27 -18 -23 -13 5 -18 0 -19
-16 -2 -26 -53 -102 -68 -101 -5 0 -18 -13 -28 -29 -9 -16 -33 -36 -52 -44
-37 -15 -69 -20 -48 -6 9 6 88 121 128 187 6 9 18 17 27 19 9 1 26 13 38 26
21 25 21 25 17 2 -3 -12 -1 -20 4 -16 8 5 14 64 6 64 -15 0 -132 -125 -146
-156 -24 -51 -86 -114 -114 -114 -12 0 -39 -3 -59 -6 -42 -7 -53 10 -15 22 20
7 19 8 -12 15 -34 7 -85 -7 -76 -21 3 -5 -2 -10 -10 -14 -19 -7 -19 14 0 41
10 14 22 20 33 17 15 -5 15 -4 -1 6 -13 9 -27 8 -55 -1 -20 -7 -31 -14 -25
-16 17 -6 -4 -44 -52 -98 -43 -49 -44 -38 -5 39 37 73 37 81 2 60 -19 -10 -38
-38 -56 -80 -26 -58 -73 -120 -84 -110 -2 3 5 18 17 34 11 16 29 50 40 75 11
25 24 48 30 51 16 10 14 36 -2 36 -20 0 -47 -33 -47 -58 0 -25 -20 -72 -31
-72 -4 0 -12 -15 -19 -32 -7 -18 -14 -28 -17 -21 -3 8 -20 0 -50 -23 -25 -19
-54 -39 -65 -45 -17 -9 -18 -8 -9 9 12 22 84 82 98 82 18 0 51 45 58 77 3 18
11 35 16 38 5 4 9 13 9 22 0 13 -3 13 -15 3 -10 -8 -15 -9 -15 -2 0 6 -21 12
-47 14 l-48 3 40 22 40 22 -35 -6 c-19 -3 -43 -10 -52 -14 -32 -17 -32 -9 2
16 35 26 80 32 123 16 19 -7 37 -4 78 16 51 24 53 26 31 36 -18 8 -34 7 -70
-7 -80 -31 -91 -31 -58 -4 l28 24 -67 -3 c-66 -2 -106 -13 -50 -13 39 0 25
-11 -27 -20 -39 -8 -41 -7 -23 7 20 15 20 15 -2 9 -61 -16 -63 -13 -8 13 l60
29 -30 12 c-29 11 -43 8 -160 -34 -11 -4 -4 2 15 13 19 11 58 28 85 38 l50 17
-39 7 c-21 3 -48 4 -59 1 -14 -4 -18 -2 -12 7 10 16 -23 7 -80 -22 -29 -15
-35 -22 -23 -25 17 -3 17 -5 2 -20 -15 -15 -15 -16 2 -23 18 -7 18 -8 -1 -8
-17 -1 -17 -3 -5 -11 13 -8 12 -11 -5 -24 -31 -24 -52 -21 -30 4 10 11 13 20
8 20 -6 0 -16 -7 -23 -16 -17 -19 -50 -37 -50 -27 0 4 20 29 45 56 24 26 41
47 37 47 -4 0 11 16 33 35 47 40 29 47 -38 15 l-42 -21 30 26 30 26 -30 -7
c-40 -9 -79 -32 -93 -55 -10 -15 -9 -17 4 -12 15 5 14 3 -1 -23 -16 -26 -14
-26 15 6 17 19 29 29 25 23 -3 -7 0 -13 7 -13 7 -1 -7 -19 -31 -40 -24 -22
-38 -40 -32 -40 22 0 10 -37 -19 -58 -16 -12 -31 -22 -34 -22 -12 0 4 64 21
83 18 19 18 20 -3 9 -20 -11 -22 -8 -28 29 -6 38 8 88 21 75 4 -3 15 2 26 11
19 17 19 16 -2 -24 -30 -59 -26 -67 6 -13 15 25 27 48 26 51 -1 4 6 5 16 2 25
-6 69 36 51 47 -20 12 -73 -7 -97 -35 -13 -15 -23 -20 -23 -13 0 8 5 19 12 26
8 8 8 12 1 12 -6 0 -20 -15 -32 -32 -20 -32 -21 -32 -22 -8 0 14 -3 19 -6 11
-4 -10 -9 -8 -19 10 -14 24 -14 24 -8 -6 l7 -30 -23 20 -23 20 6 -20 c6 -18 5
-18 -5 -4 -19 23 -73 49 -103 49 -36 0 -28 -18 25 -55 41 -29 101 -118 88
-130 -10 -10 -77 25 -97 51 -26 34 -27 53 -2 30 11 -10 25 -15 31 -11 16 10
-26 54 -67 71 -44 19 -49 18 -28 -6 18 -20 18 -20 -25 -5 -55 19 -57 19 -35
-5 22 -24 20 -24 -34 -5 -23 8 -39 10 -35 4 3 -6 -4 -9 -18 -8 -12 1 -43 1
-68 0 l-45 -2 40 -13 c71 -22 85 -35 33 -29 -26 3 -59 2 -75 -2 l-28 -7 40
-14 c41 -15 68 -34 48 -34 -7 0 -24 5 -40 11 -31 11 -153 20 -153 10 0 -4 12
-14 28 -23 38 -24 10 -22 -44 2 -33 15 -52 18 -76 12 l-31 -8 29 -19 c22 -15
46 -20 106 -20 48 0 82 -5 89 -12 11 -11 7 -13 -16 -13 l-30 -1 30 -17 30 -17
-50 -3 c-27 -2 -54 -7 -59 -12 -6 -6 -21 -2 -38 7 -21 13 -30 15 -40 5 -9 -9
-7 -17 9 -34 11 -13 36 -54 56 -91 29 -53 33 -65 18 -58 -20 11 -66 81 -97
146 -14 29 -25 40 -41 40 -11 0 -25 3 -29 8 -4 4 -12 7 -18 7 -5 0 4 -15 21
-32 32 -34 68 -96 60 -105 -7 -7 -97 107 -97 123 0 9 -11 14 -30 14 -30 0 -30
0 -10 -20 27 -27 26 -45 -2 -26 -12 9 -38 16 -57 16 l-34 0 19 -21 19 -22 -59
8 c-78 9 -97 23 -163 117 -30 43 -72 93 -94 112 -36 30 -38 34 -19 39 11 3 20
0 20 -6 0 -6 3 -7 6 -4 4 4 24 -20 46 -53 21 -33 52 -70 69 -82 17 -13 41 -40
53 -60 15 -25 26 -34 35 -29 17 11 -3 51 -24 51 -8 0 -15 3 -15 8 0 4 -13 21
-28 38 -15 18 -49 57 -76 88 -45 51 -100 97 -82 67 4 -6 3 -11 -3 -11 -5 0
-19 16 -31 35 -23 37 -27 40 -49 26 -9 -6 -20 -2 -32 10 -19 19 -49 26 -49 11
0 -4 10 -12 22 -17 13 -6 28 -21 35 -35 l13 -25 0 25 c1 24 1 24 15 7 16 -21
30 -95 20 -105 -9 -9 -25 19 -26 48 0 21 -2 22 -8 6 -7 -17 -9 -16 -38 8 -21
17 -32 38 -37 65 -3 22 -13 41 -22 45 -23 9 -28 1 -9 -14 18 -15 21 -63 3 -58
-7 3 -17 14 -23 26 -5 12 -14 21 -20 20 -10 -1 -94 33 -127 52 -11 6 -18 6
-21 -3 -6 -18 -56 8 -67 35 -6 17 -9 18 -9 6 -1 -16 -4 -16 -38 -1 -21 8 -40
18 -43 22 -3 3 -16 7 -30 7 -14 1 -61 11 -104 23 -52 14 -109 21 -167 21 -48
0 -91 4 -94 10 -19 31 191 23 311 -12 49 -14 89 -21 100 -17 11 4 16 8 12 8
-4 1 -60 15 -125 31 -146 37 -234 46 -286 26z m886 -261 c10 -14 16 -29 12
-34 -6 -11 33 -55 57 -64 9 -3 25 -19 35 -34 10 -15 41 -60 70 -100 70 -95 71
-111 5 -69 -47 29 -57 42 -71 86 -8 27 -10 29 -7 8 4 -38 -4 -35 -38 13 -17
24 -31 60 -35 87 l-5 47 -6 -40 -6 -40 -8 40 c-4 22 -13 59 -20 83 -15 47 -9
53 17 17z m1610 -241 c-41 -17 -42 -25 -3 -18 16 4 42 3 57 -1 l28 -7 -45 -23
c-25 -13 -56 -29 -70 -35 -14 -6 -32 -17 -40 -24 -8 -7 -30 -18 -48 -24 -18
-6 -53 -25 -78 -42 -55 -37 -65 -38 -34 -5 13 14 19 25 12 25 -6 0 -24 -17
-41 -37 -26 -31 -29 -33 -25 -12 5 19 3 21 -5 9 -9 -12 -11 -10 -11 13 0 39
14 62 54 87 51 31 161 30 116 -1 -11 -8 -9 -9 10 -5 14 4 37 9 52 12 33 8 71
44 45 44 -9 0 -27 -5 -40 -11 -16 -7 -31 -8 -42 -2 -14 8 -13 13 12 39 23 24
36 30 78 31 l50 1 -32 -14z m-835 -45 c10 -15 20 -19 37 -15 33 8 72 -9 80
-34 4 -12 13 -19 20 -16 19 7 41 -23 55 -74 7 -27 28 -62 51 -87 22 -24 39
-52 39 -65 -1 -21 -5 -18 -40 20 -21 23 -48 62 -61 85 -52 99 -46 92 -51 58
-2 -16 -1 -28 4 -25 4 3 8 -3 8 -13 0 -10 7 -30 16 -43 9 -14 -10 1 -41 33
-31 33 -70 83 -86 113 -17 30 -38 54 -47 54 -13 0 -12 -4 5 -22 11 -13 40 -52
65 -88 25 -36 58 -76 73 -90 15 -14 34 -38 42 -55 10 -21 -5 -9 -54 41 -37 38
-80 78 -95 88 -34 22 -91 137 -74 148 20 14 41 8 54 -13z m956 -18 c8 -12 -64
-119 -108 -161 l-37 -35 10 28 c6 16 11 45 10 65 0 37 -1 37 -19 -18 -11 -30
-20 -64 -20 -75 l-1 -20 -9 20 c-6 14 -9 16 -9 4 -1 -14 -90 -121 -91 -108 0
16 30 77 45 89 22 18 41 57 49 101 6 37 29 65 56 71 8 2 23 13 33 26 19 22 80
32 91 13z m-613 -11 c10 0 34 -16 54 -35 27 -28 35 -44 35 -73 l0 -37 -19 30
c-10 17 -31 41 -46 55 l-28 25 26 -40 c32 -47 36 -71 6 -35 -15 18 -19 20 -15
7 5 -17 3 -16 -24 3 -16 11 -54 32 -84 46 -67 31 -85 51 -35 40 19 -5 45 -10
59 -13 l25 -4 -23 13 c-29 18 -16 31 22 24 16 -3 37 -6 47 -6z m860 -429 c20
-25 26 -95 9 -106 -5 -3 -10 -14 -10 -23 0 -9 -14 -33 -30 -52 -16 -19 -30
-37 -30 -40 0 -12 -59 -40 -82 -40 -21 1 -20 3 15 32 53 43 80 100 80 169 -1
32 -8 70 -18 88 l-17 33 32 -18 c18 -11 41 -30 51 -43z m-1377 14 c-31 -75
-11 -161 54 -227 20 -21 31 -38 24 -38 -30 0 -84 37 -114 79 -28 39 -32 54
-33 104 0 54 3 61 33 88 43 38 54 37 36 -6z m474 -214 c-6 -11 -36 -35 -65
-53 -29 -18 -53 -37 -53 -42 0 -4 -7 -5 -16 -2 -8 3 -13 2 -10 -3 8 -12 -25
-31 -119 -70 -44 -19 -92 -40 -107 -48 -29 -15 -37 -7 -15 17 7 9 4 8 -8 -1
-11 -9 -31 -22 -44 -29 -21 -11 -23 -10 -18 4 5 12 -4 9 -28 -10 -41 -31 -47
-19 -7 17 45 41 73 54 159 74 86 19 309 121 304 140 -2 7 14 18 37 24 1 1 -3
-8 -10 -18z m499 -73 c41 -24 254 -99 247 -86 -18 29 90 -27 122 -63 l19 -22
-25 7 c-14 4 -37 9 -52 10 -15 2 -35 9 -44 17 -16 12 -17 12 -12 -3 6 -15 4
-15 -20 -2 -15 7 -56 25 -92 40 -104 41 -151 67 -167 92 -9 12 -20 22 -27 22
-6 0 -4 -5 4 -10 8 -5 10 -10 5 -10 -6 0 -33 23 -60 51 l-50 52 60 -38 c33
-21 74 -47 92 -57z m-443 16 c13 -3 34 -3 46 1 12 4 34 1 50 -5 29 -12 46 -8
155 35 20 8 20 8 1 -13 -21 -24 -16 -28 15 -12 10 6 19 18 19 27 0 13 10 8 38
-18 20 -19 55 -47 77 -62 53 -36 105 -73 130 -91 22 -16 13 -33 -20 -39 -11
-1 -26 -6 -32 -10 -8 -5 -13 -3 -13 5 0 8 -3 9 -8 3 -11 -16 -71 -34 -78 -24
-3 5 -13 5 -24 -1 -13 -7 -21 -7 -25 0 -4 6 -10 8 -15 5 -5 -3 -40 3 -78 13
-46 12 -76 16 -86 10 -9 -5 -26 -6 -39 -2 -12 5 -26 7 -32 5 -5 -2 -23 -5 -40
-6 -16 -2 -30 -4 -30 -5 0 -3 -53 -10 -107 -14 -35 -2 -67 1 -82 10 -14 7 -26
9 -26 5 0 -13 -51 1 -57 15 -3 8 -9 11 -14 8 -5 -3 -9 2 -9 10 0 9 4 16 9 16
10 0 176 120 211 154 23 22 25 22 32 5 4 -10 18 -21 32 -25z m-681 26 c12 0
28 -10 36 -22 12 -19 11 -23 -5 -36 -18 -13 -18 -14 5 -7 25 8 74 -12 65 -27
-3 -4 4 -8 15 -8 12 0 21 -4 21 -9 0 -10 -38 -39 -79 -61 -23 -12 -23 -11 5
26 l29 38 -37 -21 c-35 -20 -38 -21 -38 -5 0 10 5 23 12 30 9 9 7 10 -8 7 -84
-19 -110 -27 -121 -37 -7 -6 -13 -6 -13 -1 0 5 21 19 48 30 l47 21 -37 1 c-43
1 -48 13 -15 36 22 16 22 16 -10 10 -25 -4 -33 -2 -33 10 0 15 55 36 78 29 8
-2 23 -4 35 -4z m949 -270 c29 -11 66 -20 82 -20 24 0 27 -2 16 -15 -10 -11
-24 -14 -54 -10 -23 3 -48 6 -56 7 -8 0 -20 5 -26 10 -20 15 -127 20 -174 8
-25 -6 -56 -13 -70 -15 -14 -2 -39 -6 -56 -10 -21 -4 -35 -1 -44 10 -11 13 -8
15 21 16 19 0 57 9 84 19 72 26 208 26 277 0z m-145 -79 c24 -5 40 -4 37 0 -9
15 40 10 63 -6 21 -15 22 -52 2 -39 -5 3 -9 -6 -9 -20 0 -28 -15 -43 -23 -24
-4 10 -8 9 -16 -2 -8 -12 -11 -12 -17 4 -7 18 -8 17 -16 -5 -8 -22 -10 -22
-19 -6 -6 10 -15 14 -22 10 -29 -18 -61 -3 -69 33 -2 10 -11 18 -19 16 -8 -2
-4 7 10 22 26 28 34 29 98 17z m-173 -376 c27 -14 61 -25 75 -25 14 -1 37 -7
51 -15 23 -13 21 -13 -33 -8 -74 8 -86 -3 -127 -117 -18 -49 -39 -95 -46 -101
-19 -16 -49 11 -80 73 -26 51 -32 83 -11 54 12 -16 15 -14 31 22 10 22 31 54
47 72 25 26 34 31 57 25 l27 -7 -24 26 c-30 32 -28 32 33 1z m434 -19 c10 -4
29 -29 42 -57 28 -58 36 -65 55 -49 39 33 -17 -90 -59 -129 -33 -31 -48 -19
-70 57 -9 31 -27 77 -39 102 l-22 45 -62 -1 c-37 -1 -69 -7 -80 -15 -13 -11
-15 -11 -9 0 11 17 68 41 100 41 13 0 43 11 67 25 42 23 44 23 51 6 4 -11 15
-22 26 -25z m-678 -146 c-8 -6 -10 -10 -4 -10 6 0 10 -10 10 -22 -1 -13 1 -27
5 -33 24 -34 50 -443 27 -429 -4 3 -8 13 -9 22 0 11 -2 12 -6 4 -2 -6 -9 -9
-15 -6 -6 4 -8 -2 -4 -17 7 -23 6 -23 -5 -4 -14 23 -39 49 -39 41 0 -2 16 -35
35 -73 49 -95 44 -104 -7 -13 -64 115 -178 352 -178 370 0 26 186 197 200 183
2 -2 -2 -8 -10 -13z m958 -83 c45 -38 82 -75 82 -83 0 -16 -202 -415 -207
-410 -3 2 2 17 10 33 12 24 15 68 8 123 -1 10 -7 7 -16 -10 -8 -14 -12 -34
-10 -45 3 -11 2 -14 -1 -7 -8 17 -25 15 -18 -2 3 -8 1 -16 -4 -20 -5 -3 -7 25
-5 67 1 40 3 90 3 112 0 50 26 249 39 292 5 17 6 35 3 39 -12 15 32 -19 116
-89z m-666 -10 c4 -7 8 -18 8 -25 0 -7 9 -31 21 -53 l20 -41 -20 -86 c-21 -91
-51 -249 -56 -292 -1 -14 -3 -29 -4 -33 -1 -11 -50 25 -106 78 -37 35 -43 47
-49 98 -6 42 -4 63 6 74 7 10 8 14 1 10 -12 -8 -35 75 -29 108 2 11 -3 40 -10
65 -16 53 -18 84 -4 75 10 -6 37 -14 81 -22 22 -4 32 2 55 31 24 30 34 36 54
31 14 -4 28 -12 32 -18z m353 -17 c29 -45 25 -44 62 -29 15 6 39 13 52 15 23
5 23 3 17 -38 -4 -24 -10 -73 -14 -109 -4 -37 -13 -73 -20 -82 -8 -9 -9 -16
-3 -19 16 -5 -5 -127 -26 -152 -11 -11 -25 -30 -33 -41 -13 -16 -10 -16 15 4
l30 23 3 -57 c2 -32 -2 -71 -7 -87 -7 -21 -7 -35 1 -48 10 -15 7 -26 -17 -60
-29 -42 -53 -56 -110 -67 -30 -6 -30 -5 13 32 24 20 41 39 38 42 -2 2 -28 -12
-56 -31 -77 -53 -90 -49 -39 15 23 29 32 52 36 96 4 46 11 63 32 81 22 19 23
21 4 13 -34 -17 -40 -14 -46 27 -18 118 -30 177 -52 268 l-26 101 26 54 c13
30 25 59 25 66 0 13 16 21 47 22 16 1 30 -11 48 -39z m-455 -481 c69 -50 70
-52 72 -97 0 -26 2 -52 2 -59 1 -7 18 -30 39 -51 62 -64 43 -71 -48 -17 l-60
36 42 -41 c34 -33 39 -40 22 -40 -29 0 -90 28 -116 52 -23 21 -32 78 -14 78 5
0 3 21 -5 47 -13 44 -20 143 -9 143 3 0 37 -23 75 -51z m1386 -379 c4 -11 7
-12 13 -2 6 10 11 9 21 -3 10 -12 10 -19 2 -27 -9 -9 -12 -8 -12 3 0 12 -2 12
-9 0 -7 -11 -11 -9 -21 9 -9 17 -14 20 -20 9 -6 -9 0 -19 20 -31 17 -10 33
-31 39 -50 5 -18 10 -27 10 -20 1 6 6 12 11 12 15 0 12 -43 -6 -68 -15 -22
-44 -30 -44 -13 0 5 -12 12 -26 15 l-27 7 29 31 c18 19 23 29 12 25 -19 -7
-53 37 -42 55 4 6 3 8 -3 5 -26 -17 -19 26 10 58 26 30 33 33 35 18 2 -10 5
-25 8 -33z m-2050 -25 c-20 -15 -20 -15 0 -15 17 0 17 -2 -5 -19 l-23 -18 31
5 c22 3 38 -1 51 -13 21 -19 28 -41 9 -29 -6 3 -3 -6 7 -22 13 -20 15 -29 6
-32 -9 -3 -8 -8 3 -19 21 -21 18 -38 -7 -40 -12 -1 -34 -11 -50 -23 l-28 -21
-11 27 c-5 15 -7 34 -4 42 4 10 0 12 -11 8 -12 -4 -15 -2 -10 9 3 9 0 15 -9
15 -21 0 -23 43 -3 66 19 21 19 21 -9 20 -43 -2 -35 26 17 52 50 25 75 29 46
7z m1851 -77 c22 -22 23 -26 10 -51 -8 -15 -18 -23 -22 -19 -5 4 -5 -1 -1 -12
5 -14 2 -17 -9 -12 -12 4 -14 0 -9 -19 4 -15 2 -25 -5 -25 -6 0 -11 -8 -11
-17 0 -14 -3 -14 -22 4 -13 12 -38 24 -55 28 -31 6 -42 23 -26 39 4 3 8 16 10
28 2 11 11 27 21 35 9 8 11 12 5 8 -16 -8 -16 0 -2 27 9 17 18 19 52 15 23 -3
50 -15 64 -29z m-2047 -233 c6 -8 9 -19 5 -25 -3 -5 7 -15 22 -22 31 -13 73
-47 73 -59 0 -4 -25 -11 -55 -14 -50 -7 -57 -5 -84 21 -16 15 -28 31 -26 35 3
4 -4 9 -15 12 -25 7 -25 22 0 47 23 23 62 26 80 5z m717 -519 c-6 -15 29 -29
55 -23 7 2 10 2 6 0 -5 -3 -3 -14 3 -25 9 -16 8 -19 -2 -13 -9 6 -11 3 -6 -9
6 -16 5 -16 -15 -1 -30 20 -75 18 -118 -5 -19 -11 -30 -19 -25 -19 6 0 21 6
35 14 38 22 65 18 98 -14 35 -32 41 -87 9 -85 -9 1 -15 -2 -12 -6 8 -12 -16
-60 -26 -54 -5 3 -9 -5 -9 -16 0 -21 -2 -20 -36 10 -23 20 -45 31 -63 30 -70
-5 -73 0 -36 54 14 20 27 48 29 61 4 24 29 56 41 55 3 0 17 13 31 30 27 31 50
41 41 16z m803 -76 c0 -5 6 -10 13 -10 8 0 22 -9 32 -20 10 -11 14 -20 10 -20
-5 0 4 -13 19 -29 34 -36 32 -67 -5 -63 -14 2 -41 -8 -62 -23 -41 -27 -57 -31
-57 -14 0 5 -5 7 -11 3 -8 -5 -10 3 -7 24 4 25 2 29 -9 21 -13 -12 -18 -2 -14
30 2 7 -2 10 -8 6 -14 -8 -14 27 0 59 6 13 21 29 33 34 27 14 66 15 66 2z"/>
</g>
</svg>
